<svg xmlns="http://www.w3.org/2000/svg" width="32" height="32" version="1"><path fill="#239fdb" d="M32 16c0 8.836-7.164 16-16 16S0 24.836 0 16 7.164 0 16 0s16 7.164 16 16z"/><path fill="#fff" d="M10.572 9.972c-.157 0-.236.157-.236.314v7.474c0 1.966 1.652 3.618 3.619 3.618H7.268c-.157 0-.315.158-.315.394 0 .157.158.314.394.236h17.385a.338.338 0 0 0 .315-.315.338.338 0 0 0-.315-.315h-6.53a3.609 3.609 0 0 0 3.62-3.618v-1.338c.393.079.865.079 1.18-.078 1.415-.472 2.202-1.967 1.73-3.383-.315-1.023-1.337-1.73-2.36-1.81h-.63v-.865a.338.338 0 0 0-.314-.314H10.572z"/></svg>